<svg width="28" height="22" viewBox="0 0 28 22" fill="none" xmlns="http://www.w3.org/2000/svg">
<path fill-rule="evenodd" clip-rule="evenodd" d="M0.875 2C0.875 1.37868 1.37868 0.875 2 0.875H26.75C27.3713 0.875 27.875 1.37868 27.875 2C27.875 2.62132 27.3713 3.125 26.75 3.125H2C1.37868 3.125 0.875 2.62132 0.875 2ZM0.875 11C0.875 10.3787 1.37868 9.875 2 9.875H26.75C27.3713 9.875 27.875 10.3787 27.875 11C27.875 11.6213 27.3713 12.125 26.75 12.125H2C1.37868 12.125 0.875 11.6213 0.875 11ZM0.875 20C0.875 19.3787 1.37868 18.875 2 18.875H26.75C27.3713 18.875 27.875 19.3787 27.875 20C27.875 20.6213 27.3713 21.125 26.75 21.125H2C1.37868 21.125 0.875 20.6213 0.875 20Z" fill="white"/>
</svg>
